<svg xmlns="http://www.w3.org/2000/svg" xmlns:xlink="http://www.w3.org/1999/xlink" width="500" zoomAndPan="magnify" viewBox="0 0 375 374.999991" height="500" preserveAspectRatio="xMidYMid meet" version="1.0"><defs><clipPath id="f29f8150fd"><path d="M 136.03125 112.5 L 238.78125 112.5 L 238.78125 260 L 136.03125 260 Z M 136.03125 112.5 " clip-rule="nonzero"/></clipPath></defs><rect x="-37.5" width="450" fill="#ffffff" y="-37.499999" height="449.999989" fill-opacity="1"/><rect x="-37.5" width="450" fill="#ffffff" y="-37.499999" height="449.999989" fill-opacity="1"/><g clip-path="url(#f29f8150fd)"><path fill="#040404" d="M 187.40625 112.550781 C 215.78125 112.550781 238.785156 135.59375 238.785156 164.019531 C 238.785156 173.910156 235.996094 183.144531 231.167969 190.988281 C 225.378906 200.597656 219.589844 210.207031 213.800781 219.816406 C 206.746094 231.300781 201.042969 240.59375 193.992188 252.078125 C 187.773438 262.203125 187.355469 262.449219 181.105469 252.273438 C 174.089844 240.847656 168.191406 231.242188 161.175781 219.816406 C 155.398438 210.316406 149.625 200.816406 143.847656 191.3125 C 138.898438 183.402344 136.03125 174.046875 136.03125 164.019531 C 136.03125 135.59375 159.035156 112.550781 187.40625 112.550781 Z M 187.40625 138.355469 C 200.128906 138.355469 210.441406 148.683594 210.441406 161.429688 C 210.441406 174.171875 200.128906 184.5 187.40625 184.5 C 174.6875 184.5 164.375 174.171875 164.375 161.429688 C 164.375 148.683594 174.6875 138.355469 187.40625 138.355469 Z M 187.40625 138.355469 " fill-opacity="1" fill-rule="evenodd"/></g></svg>